<svg height="300" style="font-family:Arimo,sans-serif;font-size:12;color-interpolation-filters:sRGB;fill:none;fill-rule:evenodd;stroke-linecap:square;stroke-miterlimit:3" viewBox="0 0 960 300" width="960" xmlns="http://www.w3.org/2000/svg">
  <defs>
    <!-- Embed the @font-face definitions -->
    <style type="text/css">
      @font-face {
        font-display: swap;
        font-family: 'Arimo';
        font-style: normal;
        font-weight: 400;
        src: url('../fonts/arimo/arimo-v34-latin-regular.woff2') format('woff2');
      }

      @font-face {
        font-display: swap;
        font-family: 'Arimo';
        font-style: normal;
        font-weight: 600;
        src: url('../fonts/arimo/arimo-v34-latin-600.woff2') format('woff2');
      }
      text {
        font-family: "Arimo", sans-serif;
        font-size: 24px;
      }
    </style>
  </defs>
  <g fill="#fd7d13" transform="matrix(3.3853201 0 0 3.3526671 -225.84629 -5.523824)">
    <path d="m0 159.5h14.1732v14.1732h-14.1732z" transform="matrix(.96786446 -.10271747 .10172665 .97729144 67.556697 -146.72989)"/>
    <path d="m0 159.5h14.1732v14.1732h-14.1732z" transform="matrix(.96786446 -.10271747 .10172665 .97729144 69.258015 -130.38528)"/>
    <path d="m0 159.5h14.1732v14.1732h-14.1732z" transform="matrix(.96786446 -.10271747 .10172665 .97729144 70.959332 -114.04067)"/>
    <path d="m0 159.5h14.1732v14.1732h-14.1732z" transform="matrix(.96786446 -.10271747 .10172665 .97729144 72.660649 -97.696053)"/>
    <path d="m0 159.5h14.1732v14.1732h-14.1732z" transform="matrix(.96786446 -.10271747 .10172665 .97729144 74.361966 -81.35144)"/>
  </g>
  <g stroke-width="3.29458">
    <path d="m112.58093 19.387178 101.23694-10.640436 4.88094 46.438951-101.23694 10.640442z" fill="#0069a6"/>
    <path d="m118.34045 74.185215 46.43889-4.880934 4.88097 46.438949-46.43894 4.88095z" fill="#fd7d13"/>
    <path d="m129.85944 183.78132 46.43894-4.88094 4.88092 46.43898-46.43894 4.88091z" fill="#fd7d13"/>
    <path d="m233.69597 117.46426 46.43893-4.88094 4.88092 46.43896-46.43892 4.88093z" fill="#0069a6"/>
    <path d="m8.744409 85.704242 46.438926-4.880934 4.880931 46.438962-46.438925 4.88092z" fill="#fd7d13"/>
    <path d="m14.503926 140.50227 46.438926-4.88093 4.880932 46.43897-46.438926 4.88091z" fill="#fd7d13"/>
    <path d="m20.263426 195.30033 46.438924-4.88093 4.880933 46.43897-46.438926 4.88093z" fill="#fd7d13"/>
    <g fill="#0069a6">
      <path d="m173.13845 68.425733 101.23694-10.640438 4.88093 46.438955-101.23694 10.64044z"/>
      <path d="m124.09993 128.98328 101.23694-10.64044 4.88095 46.43894-101.23694 10.64046z"/>
      <path d="m184.65743 178.02181 101.23695-10.64045 4.88093 46.43896-101.23695 10.64045z"/>
      <path d="m135.61895 238.57937 101.23694-10.64044 4.88093 46.43896-101.23694 10.64044z"/>
    </g>
    <path d="m5.912126 58.756733a28.016903 28.016918.21057516 0 1 24.923294-30.777736l18.577931-1.952621 4.879842 46.42847-46.42846 4.879828z" fill="#fd7d13"/>
    <path d="m58.754309 293.60947a28.016903 28.016918.21057516 0 1 -30.777726-24.92333l-1.952626-18.57793 46.428441-4.87984 4.879841 46.42847z" fill="#fd7d13"/>
    <path d="m293.60787 240.76717a28.016903 28.016918.21057516 0 1 -24.92329 30.77773l-18.57794 1.95262-4.87984-46.42847 46.42844-4.87983z" fill="#0069a6"/>
    <path d="m240.76597 5.913724a28.016903 28.016918.21057516 0 1 30.77773 24.923319l1.95263 18.577939-46.42845 4.879831-4.87983-46.428471z" fill="#0069a6"/>
  </g>
  <g transform="matrix(4.0107611 0 0 4.4916856 327.49093 -558.38966)">
    <path d="m0 129.57899h113.386v44.0945h-113.386z" fill="none"/>
    <text fill="#0069a6" font-size="42px" font-weight="bold" x="4" y="166">
      <tspan font-size="42px" font-weight="bold">YDC</tspan>
    </text>
  </g>
  <g transform="matrix(2.6546322 0 0 2.6787928 328.16775 -184.82766)">
    <path d="m0 145.327h229.606v28.3465h-229.606z" fill="none"/>
    <text fill="#fd7d13" font-size="24px" font-stretch="semi-condensed" x="5.8" y="166">
      <tspan font-size="24px" font-stretch="normal">Datacenter Services</tspan>
    </text>
  </g>
</svg>